<svg width="16" height="17" viewBox="0 0 16 17" fill="none" xmlns="http://www.w3.org/2000/svg">
<path fill-rule="evenodd" clip-rule="evenodd" d="M8.16455 0.807251C3.82186 0.807251 0.328125 4.30099 0.328125 8.64368C0.328125 12.1048 2.5811 15.0434 5.68302 16.0883C6.07484 16.1536 6.20544 15.925 6.20544 15.6965C6.20544 15.5005 6.20544 15.0108 6.20544 14.3577C4.01778 14.8475 3.56065 13.3129 3.56065 13.3129C3.20148 12.3986 2.67905 12.1701 2.67905 12.1701C1.96071 11.6803 2.74436 11.6803 2.74436 11.6803C3.528 11.7456 3.95247 12.4966 3.95247 12.4966C4.63816 13.7047 5.78097 13.3455 6.2381 13.1496C6.3034 12.6272 6.49931 12.3007 6.72787 12.1048C4.99733 11.9089 3.16883 11.2232 3.16883 8.2192C3.16883 7.37026 3.4627 6.65192 3.98512 6.12949C3.91982 5.93358 3.62595 5.14994 4.05043 4.03978C4.05043 4.03978 4.70346 3.84387 6.20544 4.85607C6.82583 4.69281 7.51152 4.59486 8.16455 4.59486C8.81759 4.59486 9.50327 4.69281 10.1237 4.85607C11.6256 3.84387 12.2787 4.03978 12.2787 4.03978C12.7031 5.11728 12.4419 5.90093 12.344 6.12949C12.8338 6.68457 13.1603 7.37026 13.1603 8.2192C13.1603 11.2232 11.3318 11.8762 9.56858 12.0721C9.86244 12.3007 10.091 12.7905 10.091 13.5088C10.091 14.5536 10.091 15.4026 10.091 15.6638C10.091 15.8597 10.2216 16.1209 10.6461 16.0556C13.748 15.0434 16.001 12.1048 16.001 8.64368C16.001 4.30099 12.5072 0.807251 8.16455 0.807251Z" fill="#0F172A"/>
</svg>
