<svg width="18" height="18" viewBox="0 0 18 18" fill="none" xmlns="http://www.w3.org/2000/svg">
<path d="M9.13374 2.28343C11.3211 2.28343 11.5801 2.29162 12.4442 2.33102C12.9638 2.33738 13.4784 2.43278 13.9657 2.61308C14.319 2.74936 14.64 2.95813 14.9078 3.22594C15.1756 3.49375 15.3844 3.81468 15.5206 4.16806C15.7009 4.65535 15.7963 5.16995 15.8027 5.68949C15.8417 6.55359 15.8503 6.81262 15.8503 8.99997C15.8503 11.1873 15.8421 11.4464 15.8027 12.3105C15.7963 12.83 15.7009 13.3446 15.5206 13.8319C15.3844 14.1853 15.1756 14.5062 14.9078 14.774C14.64 15.0418 14.319 15.2506 13.9657 15.3869C13.4784 15.5672 12.9638 15.6626 12.4442 15.6689C11.5805 15.7079 11.3215 15.7165 9.13374 15.7165C6.946 15.7165 6.68696 15.7083 5.82326 15.6689C5.30372 15.6626 4.78912 15.5672 4.30182 15.3869C3.94845 15.2506 3.62752 15.0418 3.35971 14.774C3.09189 14.5062 2.88312 14.1853 2.74684 13.8319C2.56655 13.3446 2.47115 12.83 2.46479 12.3105C2.42578 11.4464 2.4172 11.1873 2.4172 8.99997C2.4172 6.81262 2.42539 6.55359 2.46479 5.68949C2.47115 5.16995 2.56655 4.65535 2.74684 4.16806C2.88312 3.81468 3.09189 3.49375 3.35971 3.22594C3.62752 2.95813 3.94845 2.74936 4.30182 2.61308C4.78912 2.43278 5.30372 2.33738 5.82326 2.33102C6.68735 2.29201 6.94639 2.28343 9.13374 2.28343ZM9.13374 0.807251C6.91011 0.807251 6.63001 0.816614 5.75616 0.856405C5.07621 0.869929 4.40349 0.998671 3.76659 1.23715C3.22024 1.443 2.72538 1.76558 2.31655 2.18239C1.89936 2.59137 1.5765 3.08651 1.37053 3.63322C1.13205 4.27011 1.0033 4.94284 0.98978 5.62278C0.950769 6.49585 0.941406 6.77595 0.941406 8.99958C0.941406 11.2232 0.950769 11.5033 0.99056 12.3772C1.00408 13.0571 1.13283 13.7298 1.37131 14.3667C1.57706 14.9134 1.89964 15.4085 2.31655 15.8176C2.72561 16.2345 3.22074 16.557 3.76737 16.7628C4.40427 17.0013 5.07699 17.13 5.75694 17.1435C6.63079 17.1826 6.90972 17.1927 9.13452 17.1927C11.3593 17.1927 11.6383 17.1833 12.5121 17.1435C13.192 17.13 13.8648 17.0013 14.5017 16.7628C15.0457 16.5519 15.5397 16.2298 15.9522 15.8171C16.3646 15.4044 16.6864 14.9101 16.897 14.366C17.1354 13.7291 17.2642 13.0563 17.2777 12.3764C17.3167 11.5033 17.3261 11.2232 17.3261 8.99958C17.3261 6.77595 17.3167 6.49585 17.2769 5.622C17.2634 4.94206 17.1347 4.26933 16.8962 3.63243C16.6904 3.0858 16.3678 2.59067 15.9509 2.18161C15.5419 1.76471 15.0467 1.44212 14.5001 1.23637C13.8632 0.997891 13.1905 0.869149 12.5105 0.855625C11.6375 0.816614 11.3574 0.807251 9.13374 0.807251Z" fill="#0F172A"/>
<path d="M9.13274 4.79163C8.30068 4.79163 7.48731 5.03836 6.79548 5.50063C6.10365 5.96289 5.56443 6.61993 5.24602 7.38865C4.9276 8.15737 4.84429 9.00325 5.00662 9.81932C5.16894 10.6354 5.56962 11.385 6.15797 11.9734C6.74633 12.5617 7.49593 12.9624 8.312 13.1247C9.12807 13.287 9.97395 13.2037 10.7427 12.8853C11.5114 12.5669 12.1684 12.0277 12.6307 11.3358C13.093 10.644 13.3397 9.83064 13.3397 8.99858C13.3397 7.88283 12.8965 6.81277 12.1075 6.02382C11.3186 5.23486 10.2485 4.79163 9.13274 4.79163ZM9.13274 11.7294C8.59264 11.7294 8.06468 11.5692 7.6156 11.2691C7.16653 10.9691 6.81652 10.5426 6.60983 10.0436C6.40315 9.54462 6.34907 8.99555 6.45443 8.46584C6.5598 7.93612 6.81988 7.44954 7.20179 7.06763C7.5837 6.68573 8.07027 6.42564 8.59999 6.32028C9.12971 6.21491 9.67878 6.26899 10.1778 6.47567C10.6767 6.68236 11.1032 7.03237 11.4033 7.48144C11.7034 7.93052 11.8635 8.45849 11.8635 8.99858C11.8635 9.72283 11.5758 10.4174 11.0637 10.9295C10.5516 11.4417 9.85699 11.7294 9.13274 11.7294Z" fill="#0F172A"/>
<path d="M13.5065 5.60935C14.0495 5.60935 14.4896 5.16921 14.4896 4.62627C14.4896 4.08333 14.0495 3.64319 13.5065 3.64319C12.9636 3.64319 12.5234 4.08333 12.5234 4.62627C12.5234 5.16921 12.9636 5.60935 13.5065 5.60935Z" fill="#0F172A"/>
</svg>
