<svg width="15" height="11" viewBox="0 0 15 11" fill="none" xmlns="http://www.w3.org/2000/svg">
<path d="M14.2905 1.35145C13.7837 1.57667 13.2488 1.71743 12.6858 1.80189C13.2488 1.46406 13.6993 0.929165 13.8963 0.281661C13.3614 0.591337 12.7702 0.816556 12.1227 0.957317C11.616 0.422423 10.884 0.0845947 10.0958 0.0845947C8.57554 0.0845947 7.33684 1.3233 7.33684 2.84352C7.33684 3.06874 7.36499 3.26581 7.4213 3.46288C5.14096 3.35027 3.08584 2.25233 1.70637 0.563185C1.48115 0.98547 1.34039 1.43591 1.34039 1.94265C1.34039 2.89983 1.81898 3.7444 2.57909 4.25114C2.12866 4.22299 1.70637 4.11038 1.31224 3.91331V3.94147C1.31224 5.29278 2.26942 6.41887 3.53627 6.67224C3.31105 6.72855 3.05768 6.7567 2.80431 6.7567C2.6354 6.7567 2.43833 6.72855 2.26942 6.7004C2.6354 7.79834 3.64888 8.61476 4.85943 8.61476C3.90225 9.34672 2.71986 9.79715 1.42485 9.79715C1.19963 9.79715 0.97441 9.79715 0.777344 9.769C2.01605 10.5573 3.45182 11.0077 5.02835 11.0077C10.1239 11.0077 12.911 6.78485 12.911 3.12505C12.911 3.01244 12.911 2.87168 12.911 2.75907C13.4459 2.39309 13.9245 1.9145 14.2905 1.35145Z" fill="#0F172A"/>
</svg>
